<svg width="720" height="520" viewBox="0 0 720 520" fill="none" xmlns="http://www.w3.org/2000/svg">
  <rect width="720" height="520" rx="32" fill="#F1F5F9"/>
  <rect x="60" y="60" width="600" height="400" rx="28" fill="#FFFFFF" stroke="#E2E8F0" stroke-width="2"/>
  <rect x="120" y="120" width="220" height="140" rx="24" fill="#E2E8F0"/>
  <rect x="360" y="120" width="220" height="24" rx="12" fill="#CBD5E1"/>
  <rect x="360" y="156" width="180" height="24" rx="12" fill="#CBD5E1"/>
  <rect x="360" y="192" width="200" height="24" rx="12" fill="#CBD5E1"/>
  <circle cx="170" cy="200" r="40" fill="#F2C4A2"/>
  <path d="M140 200c0-20 14-32 30-32s30 12 30 32c0 8-6 14-10 16-4-8-10-10-20-10s-16 2-20 10c-4-2-10-8-10-16z" fill="#2F3B4E"/>
  <rect x="150" y="236" width="40" height="24" rx="12" fill="#F8FAFC"/>
  <rect x="150" y="310" width="420" height="80" rx="40" fill="#E2E8F0"/>
  <rect x="360" y="320" width="150" height="20" rx="10" fill="#CBD5E1"/>
  <rect x="360" y="346" width="200" height="20" rx="10" fill="#CBD5E1"/>
</svg>
